#ifndef JINGLE_BELLS_H
#define JINGLE_BELLS_H
#include "notes.h"

#ifndef MELODY
#  define MELODY {NOTE_A4, NOTE_A4, NOTE_A4, NOTE_A4, NOTE_A4, NOTE_A4, NOTE_A4, NOTE_C5, NOTE_F4, NOTE_G4, NOTE_A4, NOTE_AS4, NOTE_AS4, NOTE_AS4, NOTE_AS4, NOTE_AS4, NOTE_A4, NOTE_A4, NOTE_A4, NOTE_A4, NOTE_A4, NOTE_G4, NOTE_G4, NOTE_A4, NOTE_G4, NOTE_C5, NOTE_A4, NOTE_A4, NOTE_A4, NOTE_A4, NOTE_A4, NOTE_A4, NOTE_A4, NOTE_C5, NOTE_F4, NOTE_G4, NOTE_A4, NOTE_AS4, NOTE_AS4, NOTE_AS4, NOTE_AS4, NOTE_AS4, NOTE_A4, NOTE_A4, NOTE_A4, NOTE_A4, NOTE_C5, NOTE_C5, NOTE_AS4, NOTE_G4, NOTE_F4, 0}
#else
#  error "Do not include more than one melody file!"
#endif /* MELODY */

#endif /* JINGLE_BELLS_H */
