#ifndef SIND_DIE_LICHTER_ANGEZUENDET_H
#define SIND_DIE_LICHTER_ANGEZUENDET_H
#include "notes.h"

#ifndef MELODY
#  define MELODY {NOTE_E4, NOTE_F4, NOTE_G4, NOTE_G4, NOTE_F4, NOTE_E4, NOTE_D4, NOTE_D4, NOTE_C4, NOTE_D4, NOTE_E4, NOTE_E4, NOTE_F4, NOTE_E4, NOTE_D4, NOTE_E4, NOTE_F4, NOTE_G4, NOTE_G4, NOTE_A4, NOTE_B4, NOTE_C5, NOTE_G4, NOTE_E4, NOTE_A4, NOTE_B4, NOTE_C5, NOTE_G4, NOTE_E4, NOTE_G4, NOTE_F4, NOTE_E4, NOTE_D4, NOTE_C4, NOTE_C4, NOTE_G4, NOTE_G4, NOTE_C5, NOTE_C5, NOTE_B4, NOTE_A4, NOTE_C5, NOTE_G4, NOTE_F4, NOTE_G4, NOTE_E4, NOTE_C4, NOTE_D4, NOTE_D4, NOTE_C4, 0}
#else
#  error "Do not include more than one melody file!"
#endif /* MELODY */

#endif /* SIND_DIE_LICHTER_ANGEZUENDET_H */
